<svg width="121" height="119" viewBox="0 0 121 119" fill="none" xmlns="http://www.w3.org/2000/svg">
<path d="M30.9499 12.0178C30.9499 10.7144 32.0241 9.65777 33.3492 9.65777H45.3459C46.671 9.65777 47.7452 10.7144 47.7452 12.0178V19.0978C47.7452 20.4012 46.671 21.4578 45.3459 21.4578H33.3492C32.0241 21.4578 30.9499 20.4012 30.9499 19.0978V12.0178Z" fill="white"/>
<path d="M33.3492 85.1778C32.0241 85.1778 30.9499 86.2344 30.9499 87.5378C30.9499 88.8412 32.0241 89.8978 33.3492 89.8978H87.3342C88.6593 89.8978 89.7335 88.8412 89.7335 87.5378C89.7335 86.2344 88.6593 85.1778 87.3342 85.1778H33.3492Z" fill="white"/>
<path d="M30.9499 96.9778C30.9499 95.6744 32.0241 94.6178 33.3492 94.6178H87.3342C88.6593 94.6178 89.7335 95.6744 89.7335 96.9778C89.7335 98.2812 88.6593 99.3378 87.3342 99.3378H33.3492C32.0241 99.3378 30.9499 98.2812 30.9499 96.9778Z" fill="white"/>
<path d="M33.3492 104.058C32.0241 104.058 30.9499 105.114 30.9499 106.418C30.9499 107.721 32.0241 108.778 33.3492 108.778H70.1716C71.4967 108.778 72.571 107.721 72.571 106.418C72.571 105.114 71.4967 104.058 70.1716 104.058H33.3492Z" fill="white"/>
<path fill-rule="evenodd" clip-rule="evenodd" d="M30.9499 0.217773C25.6494 0.217773 21.3525 4.4442 21.3525 9.65777V108.778C21.3525 113.991 25.6494 118.218 30.9499 118.218H89.7335C95.034 118.218 99.3309 113.991 99.3309 108.778V9.65777C99.3309 4.44421 95.034 0.217773 89.7335 0.217773H30.9499ZM89.7335 4.93777H30.9499C28.2996 4.93777 26.1512 7.05099 26.1512 9.65777V108.778C26.1512 111.385 28.2996 113.498 30.9499 113.498H89.7335C92.3838 113.498 94.5322 111.385 94.5322 108.778V9.65777C94.5322 7.05099 92.3838 4.93777 89.7335 4.93777Z" fill="white"/>
</svg>
