<svg width="121" height="119" viewBox="0 0 121 119" fill="none" xmlns="http://www.w3.org/2000/svg">
<path d="M30.9499 66.2973C30.9499 64.994 32.0241 63.9373 33.3492 63.9373H87.3342C88.6593 63.9373 89.7335 64.994 89.7335 66.2973C89.7335 67.6007 88.6593 68.6573 87.3342 68.6573H33.3492C32.0241 68.6573 30.9499 67.6007 30.9499 66.2973Z" fill="white"/>
<path d="M33.3492 73.3773C32.0241 73.3773 30.9499 74.434 30.9499 75.7373C30.9499 77.0407 32.0241 78.0973 33.3492 78.0973H87.3342C88.6593 78.0973 89.7335 77.0407 89.7335 75.7373C89.7335 74.434 88.6593 73.3773 87.3342 73.3773H33.3492Z" fill="white"/>
<path d="M30.9499 85.1773C30.9499 83.874 32.0241 82.8173 33.3492 82.8173H70.1716C71.4967 82.8173 72.571 83.874 72.571 85.1773C72.571 86.4807 71.4967 87.5373 70.1716 87.5373H33.3492C32.0241 87.5373 30.9499 86.4807 30.9499 85.1773Z" fill="white"/>
<path d="M33.3492 29.7173C32.0241 29.7173 30.9499 30.774 30.9499 32.0773V39.1573C30.9499 40.4607 32.0241 41.5173 33.3492 41.5173H45.3459C46.671 41.5173 47.7452 40.4607 47.7452 39.1573V32.0773C47.7452 30.774 46.671 29.7173 45.3459 29.7173H33.3492Z" fill="white"/>
<path fill-rule="evenodd" clip-rule="evenodd" d="M30.9499 20.2773C25.6494 20.2773 21.3525 24.5038 21.3525 29.7173V87.5373C21.3525 92.7509 25.6494 96.9773 30.9499 96.9773H89.7335C95.034 96.9773 99.3309 92.7509 99.3309 87.5373V29.7173C99.3309 24.5038 95.034 20.2773 89.7335 20.2773H30.9499ZM89.7335 24.9973H30.9499C28.2996 24.9973 26.1512 27.1106 26.1512 29.7173V87.5373C26.1512 90.1441 28.2996 92.2573 30.9499 92.2573H89.7335C92.3838 92.2573 94.5322 90.1441 94.5322 87.5373V29.7173C94.5322 27.1106 92.3838 24.9973 89.7335 24.9973Z" fill="white"/>
</svg>
