<svg width="121" height="119" viewBox="0 0 121 119" fill="none" xmlns="http://www.w3.org/2000/svg">
<path d="M23.9473 74.1962C23.9473 72.8928 25.0215 71.8362 26.3466 71.8362H94.9969C96.322 71.8362 97.3963 72.8928 97.3963 74.1962C97.3963 75.4996 96.322 76.5562 94.9969 76.5562H26.3466C25.0215 76.5562 23.9473 75.4996 23.9473 74.1962Z" fill="white"/>
<path d="M26.151 40.3375C24.8258 40.3375 23.7516 41.3941 23.7516 42.6975V49.7775C23.7516 51.0809 24.8258 52.1375 26.151 52.1375H38.1476C39.4727 52.1375 40.547 51.0809 40.547 49.7775V42.6975C40.547 41.3941 39.4727 40.3375 38.1476 40.3375H26.151Z" fill="white"/>
<path fill-rule="evenodd" clip-rule="evenodd" d="M23.7516 30.8975C18.4512 30.8975 14.1543 35.1239 14.1543 40.3375V76.9175C14.1543 82.131 18.4512 86.3575 23.7516 86.3575H98.131C103.431 86.3575 107.728 82.131 107.728 76.9175V40.3375C107.728 35.1239 103.431 30.8975 98.131 30.8975H23.7516ZM98.131 35.6175H23.7516C21.1014 35.6175 18.953 37.7307 18.953 40.3375V76.9175C18.953 79.5242 21.1014 81.6375 23.7516 81.6375H98.131C100.781 81.6375 102.93 79.5242 102.93 76.9175V40.3375C102.93 37.7307 100.781 35.6175 98.131 35.6175Z" fill="white"/>
</svg>
