<svg width="121" height="119" viewBox="0 0 121 119" fill="none" xmlns="http://www.w3.org/2000/svg">
<path d="M18.5553 32.0793C18.5553 30.7759 19.6296 29.7193 20.9547 29.7193H32.9513C34.2765 29.7193 35.3507 30.7759 35.3507 32.0793V39.1593C35.3507 40.4627 34.2765 41.5193 32.9513 41.5193H20.9547C19.6296 41.5193 18.5553 40.4627 18.5553 39.1593V32.0793Z" fill="white"/>
<path d="M20.9547 63.9393C19.6296 63.9393 18.5553 64.9959 18.5553 66.2993C18.5553 67.6027 19.6296 68.6593 20.9547 68.6593H99.928C101.253 68.6593 102.327 67.6027 102.327 66.2993C102.327 64.9959 101.253 63.9393 99.928 63.9393H20.9547Z" fill="white"/>
<path d="M18.5553 75.7393C18.5553 74.4359 19.6296 73.3793 20.9547 73.3793H99.928C101.253 73.3793 102.327 74.4359 102.327 75.7393C102.327 77.0427 101.253 78.0993 99.928 78.0993H20.9547C19.6296 78.0993 18.5553 77.0427 18.5553 75.7393Z" fill="white"/>
<path d="M20.9547 82.8193C19.6296 82.8193 18.5553 83.8759 18.5553 85.1793C18.5553 86.4827 19.6296 87.5393 20.9547 87.5393H57.7771C59.1022 87.5393 60.1764 86.4827 60.1764 85.1793C60.1764 83.8759 59.1022 82.8193 57.7771 82.8193H20.9547Z" fill="white"/>
<path fill-rule="evenodd" clip-rule="evenodd" d="M18.5553 20.2793C13.2549 20.2793 8.95801 24.5057 8.95801 29.7193V87.5393C8.95801 92.7529 13.2549 96.9793 18.5553 96.9793H102.327C107.628 96.9793 111.925 92.7529 111.925 87.5393V29.7193C111.925 24.5057 107.628 20.2793 102.327 20.2793H18.5553ZM102.327 24.9993H18.5553C15.9051 24.9993 13.7567 27.1125 13.7567 29.7193V87.5393C13.7567 90.1461 15.9051 92.2593 18.5553 92.2593H102.327C104.978 92.2593 107.126 90.1461 107.126 87.5393V29.7193C107.126 27.1125 104.978 24.9993 102.327 24.9993Z" fill="white"/>
</svg>
