<svg width="121" height="119" viewBox="0 0 121 119" fill="none" xmlns="http://www.w3.org/2000/svg">
<path d="M10.5553 32.0793C10.5553 30.7759 11.6296 29.7193 12.9547 29.7193H24.9513C26.2765 29.7193 27.3507 30.7759 27.3507 32.0793V39.1593C27.3507 40.4627 26.2765 41.5193 24.9513 41.5193H12.9547C11.6296 41.5193 10.5553 40.4627 10.5553 39.1593V32.0793Z" fill="white"/>
<path d="M12.9547 63.9393C11.6296 63.9393 10.5553 64.9959 10.5553 66.2993C10.5553 67.6027 11.6296 68.6593 12.9547 68.6593H108.928C110.253 68.6593 111.327 67.6027 111.327 66.2993C111.327 64.9959 110.253 63.9393 108.928 63.9393H12.9547Z" fill="white"/>
<path d="M10.5553 75.7393C10.5553 74.4359 11.6296 73.3793 12.9547 73.3793H108.928C110.253 73.3793 111.327 74.4359 111.327 75.7393C111.327 77.0427 110.253 78.0993 108.928 78.0993H12.9547C11.6296 78.0993 10.5553 77.0427 10.5553 75.7393Z" fill="white"/>
<path d="M12.9547 82.8193C11.6296 82.8193 10.5553 83.8759 10.5553 85.1793C10.5553 86.4827 11.6296 87.5393 12.9547 87.5393H49.7771C51.1022 87.5393 52.1764 86.4827 52.1764 85.1793C52.1764 83.8759 51.1022 82.8193 49.7771 82.8193H12.9547Z" fill="white"/>
<path fill-rule="evenodd" clip-rule="evenodd" d="M10.5553 20.2793C5.25488 20.2793 0.958008 24.5057 0.958008 29.7193V87.5393C0.958008 92.7529 5.25488 96.9793 10.5553 96.9793H111.327C116.628 96.9793 120.925 92.7529 120.925 87.5393V29.7193C120.925 24.5057 116.628 20.2793 111.327 20.2793H10.5553ZM111.327 24.9993H10.5553C7.90511 24.9993 5.75667 27.1125 5.75667 29.7193V87.5393C5.75667 90.1461 7.90511 92.2593 10.5553 92.2593H111.327C113.978 92.2593 116.126 90.1461 116.126 87.5393V29.7193C116.126 27.1125 113.978 24.9993 111.327 24.9993Z" fill="white"/>
</svg>
