<svg width="121" height="119" viewBox="0 0 121 119" fill="none" xmlns="http://www.w3.org/2000/svg">
<path d="M30.9499 23.8176C30.9499 22.5142 32.0241 21.4576 33.3492 21.4576H45.3459C46.671 21.4576 47.7452 22.5142 47.7452 23.8176V30.8976C47.7452 32.201 46.671 33.2576 45.3459 33.2576H33.3492C32.0241 33.2576 30.9499 32.201 30.9499 30.8976V23.8176Z" fill="white"/>
<path d="M33.3492 73.3776C32.0241 73.3776 30.9499 74.4342 30.9499 75.7376C30.9499 77.041 32.0241 78.0976 33.3492 78.0976H87.3342C88.6593 78.0976 89.7335 77.041 89.7335 75.7376C89.7335 74.4342 88.6593 73.3776 87.3342 73.3776H33.3492Z" fill="white"/>
<path d="M30.9499 85.1776C30.9499 83.8742 32.0241 82.8176 33.3492 82.8176H87.3342C88.6593 82.8176 89.7335 83.8742 89.7335 85.1776C89.7335 86.481 88.6593 87.5376 87.3342 87.5376H33.3492C32.0241 87.5376 30.9499 86.481 30.9499 85.1776Z" fill="white"/>
<path d="M33.3492 92.2576C32.0241 92.2576 30.9499 93.3142 30.9499 94.6176C30.9499 95.921 32.0241 96.9776 33.3492 96.9776H70.1716C71.4967 96.9776 72.571 95.921 72.571 94.6176C72.571 93.3142 71.4967 92.2576 70.1716 92.2576H33.3492Z" fill="white"/>
<path fill-rule="evenodd" clip-rule="evenodd" d="M30.9499 12.0176C25.6494 12.0176 21.3525 16.244 21.3525 21.4576V96.9776C21.3525 102.191 25.6494 106.418 30.9499 106.418H89.7335C95.034 106.418 99.3309 102.191 99.3309 96.9776V21.4576C99.3309 16.244 95.034 12.0176 89.7335 12.0176H30.9499ZM89.7335 16.7376H30.9499C28.2996 16.7376 26.1512 18.8508 26.1512 21.4576V96.9776C26.1512 99.5844 28.2996 101.698 30.9499 101.698H89.7335C92.3838 101.698 94.5322 99.5844 94.5322 96.9776V21.4576C94.5322 18.8508 92.3838 16.7376 89.7335 16.7376Z" fill="white"/>
</svg>
