<svg width="121" height="119" viewBox="0 0 121 119" fill="none" xmlns="http://www.w3.org/2000/svg">
<path d="M41.7467 74.5575C41.7467 73.2541 42.821 72.1975 44.1461 72.1975H76.5371C77.8622 72.1975 78.9364 73.2541 78.9364 74.5575C78.9364 75.8608 77.8622 76.9175 76.5371 76.9175H44.1461C42.821 76.9175 41.7467 75.8608 41.7467 74.5575Z" fill="white"/>
<path d="M44.1461 40.3375C42.821 40.3375 41.7467 41.3941 41.7467 42.6975V49.7775C41.7467 51.0809 42.821 52.1375 44.1461 52.1375H56.1427C57.4679 52.1375 58.5421 51.0809 58.5421 49.7775V42.6975C58.5421 41.3941 57.4679 40.3375 56.1427 40.3375H44.1461Z" fill="white"/>
<path fill-rule="evenodd" clip-rule="evenodd" d="M41.7467 30.8975C36.4463 30.8975 32.1494 35.1239 32.1494 40.3375V76.9175C32.1494 82.131 36.4463 86.3575 41.7467 86.3575H78.9364C84.2369 86.3575 88.5338 82.131 88.5338 76.9175V40.3375C88.5338 35.1239 84.2369 30.8975 78.9364 30.8975H41.7467ZM78.9364 35.6175H41.7467C39.0965 35.6175 36.9481 37.7307 36.9481 40.3375V76.9175C36.9481 79.5242 39.0965 81.6375 41.7467 81.6375H78.9364C81.5866 81.6375 83.7351 79.5242 83.7351 76.9175V40.3375C83.7351 37.7307 81.5866 35.6175 78.9364 35.6175Z" fill="white"/>
</svg>
